<svg xmlns="http://www.w3.org/2000/svg" viewBox="0 0 222.504 222.504"><path d="M178.085 27.119C165.62 13.202 149.152.287 108.444.003 92.539-.124 68.26 3.638 49.369 23.614 37.938 35.677 29.53 50.918 31.92 75.829c.521 5.406 8.237 11.659 2.814 22.091 0 0-11.65 20.502-11.24 23.912 0 0-.207 6.236 9.443 6.432 0 0 2.409.312 1.714 5.627l-.115 7.748s.307 2.306 4.528 3.707c0 0 .804.804-.396 2.322 0 0-2.22 2.477 1.604 7.832 1.416 1.95 3.718 4.409 2.311 9.457 0 0-1.809 9.729 2.01 12.059 0 0 4.342 5.153 21.813 2.996 6.109-.75 17.384-3.706 24.104 4.734 0 0 16.068 30.535 17.292 37.758 0 0 27.423-48.822 60.896-56.358 0 0-8.157-18.389 8.435-42.203 0 0 20.794-27.432 21.409-42.501-.011-.001 5.473-25.393-20.457-54.323zM78.702 57.32a3.036 3.036 0 0 0-1.992 2.822l-.127 14.191C52.7 72.93 52.916 62.412 54.981 49.042c1.64-10.619 9.901-19.334 22.068-24.89l-.139 15.894a3.034 3.034 0 0 0 1.936 2.852c1.173.461 2.5.133 3.354-.81 2.37-2.666 5.695-4.185 9.167-4.185h.104c6.78.062 12.25 5.636 12.197 12.427-.068 6.753-5.585 12.22-12.318 12.22h-.109c-3.502-.029-6.851-1.61-9.183-4.335-.85-.978-2.189-1.324-3.356-.895zM152 95.033c-5.143-.52-10.385-1.924-15.185-3.987-12.519-5.37-15.982-19.642-35.653-17.626-7.244.745-13.296 1.052-18.545 1.064l.08-8.085a18.245 18.245 0 0 0 8.455 2.192h.145c10.045 0 18.285-8.136 18.374-18.214.091-10.131-8.08-18.441-18.199-18.533-2.875.012-5.884.697-8.485 2.045l.115-12.158c9.841-3.322 21.571-4.823 34.196-3.916 12.986.913 25.139 4.758 35.306 10.574l-.065 6.088a18.06 18.06 0 0 0-8.458-2.19c-9.954.133-18.418 8.086-18.536 18.211-.048 4.915 1.838 9.54 5.267 13.045a18.22 18.22 0 0 0 12.95 5.482c3.079-.08 5.881-.688 8.476-2.045L152 95.033zm6.053.16l.308-34.362a3.03 3.03 0 0 0-1.933-2.849 3.038 3.038 0 0 0-3.357.81c-2.395 2.687-5.645 4.055-9.25 4.176a12.236 12.236 0 0 1-8.672-3.673 12.192 12.192 0 0 1-3.54-8.733c.077-6.762 5.585-12.227 12.317-12.227h.113c3.558.029 6.82 1.572 9.19 4.338.815.963 2.151 1.3 3.334.883a3.02 3.02 0 0 0 1.992-2.813l.083-8.5c11.986 8.571 20.161 20.218 21.698 33.145 2.49 21.028-8.688 29.143-22.283 29.805z"/></svg>