<svg width="604" height="323" viewBox="0 0 604 323" fill="none" xmlns="http://www.w3.org/2000/svg">
<g clip-path="url(#clip0)">
<path opacity="0.1" d="M557.69 255.411C557.017 256.869 556.346 258.306 555.677 259.725C554.633 261.928 553.603 264.088 552.586 266.206C552.133 267.144 551.681 268.065 551.24 268.986C546.252 279.227 541.594 288.284 537.638 295.733C534.049 302.483 528.719 308.138 522.207 312.106C515.696 316.075 508.242 318.21 500.626 318.29L412.664 319.251H411.736L404.196 319.333L397.746 319.403L377.967 319.619H377.166L367.097 319.729H366.789L304.726 320.405L249.327 320.988L242.883 321.058L202.861 321.495H202.814L176.858 321.775H176.579L94.5045 322.667L69.9518 322.935C64.7121 322.995 59.4946 322.244 54.4823 320.709C45.7598 318.061 37.9208 313.074 31.8088 306.283C21.2638 294.608 13.5783 280.987 8.41604 266.206C7.66973 264.073 6.97369 261.912 6.32792 259.725C-11.5429 199.02 10.2431 120.702 49.4534 68.2921C51.0968 66.1006 52.7673 63.9634 54.4649 61.8807L54.5055 61.8341C66.5644 46.9596 80.0849 34.5332 94.4872 25.6971C120.009 10.0125 148.285 5.59452 176.098 18.7612C199.63 29.9054 221.601 35.1452 242.9 36.5674C245.052 36.7072 247.204 36.8122 249.344 36.8763C298.201 38.4208 343.988 20.7312 397.757 9.31312C399.898 8.8585 402.044 8.4097 404.207 7.98422C442.565 0.313863 485.116 -3.73114 535.718 4.7727C540.975 5.63571 546.163 6.88242 551.24 8.50296C553.471 9.2257 555.621 10.0028 557.69 10.8344C581.842 20.7079 595.015 38.9512 600.612 61.8108C601.142 63.9323 601.6 66.0909 601.987 68.2863C611.911 123.273 582.846 201.27 557.69 255.411Z" fill="#0068FF"/>
<g opacity="0.1">
<path opacity="0.1" d="M94.4874 25.698V322.732L69.9346 323C64.695 323.06 59.4774 322.309 54.4651 320.773V61.835H54.5057C66.5646 46.943 80.0852 34.5166 94.4874 25.698Z" fill="#0068FF"/>
<path opacity="0.1" d="M602.016 68.293H49.4536C51.0971 66.1014 52.7675 63.9643 54.4651 61.8816V61.8349H600.642C601.171 63.9449 601.63 66.0975 602.016 68.293Z" fill="#0068FF"/>
<path opacity="0.1" d="M557.69 10.8411V259.72H555.677C554.633 261.923 553.603 264.083 552.586 266.201C552.133 267.139 551.681 268.06 551.24 268.981V8.48639C553.471 9.20913 555.621 9.99403 557.69 10.8411Z" fill="#0068FF"/>
<path opacity="0.1" d="M404.208 7.96762V319.357L397.758 319.427V9.29653C399.898 8.8419 402.044 8.3931 404.208 7.96762Z" fill="#0068FF"/>
<path opacity="0.1" d="M249.345 36.8596V321.047L242.9 321.117V36.5507C245.052 36.6906 247.204 36.7722 249.345 36.8596Z" fill="#0068FF"/>
<path opacity="0.1" d="M555.677 259.725C554.633 261.929 553.603 264.089 552.586 266.207H8.41628C7.66997 264.074 6.97393 261.913 6.32816 259.725H555.677Z" fill="#0068FF"/>
</g>
<path d="M133.756 154.94H122.735V188.547H133.756V154.94Z" fill="#3F3D56"/>
<path d="M430.344 153.191H419.323V188.745H430.344V153.191Z" fill="#3F3D56"/>
<path d="M500.627 311.04V318.617L412.508 319.433L411.568 319.45L378.077 319.759L377.277 319.771L367.097 319.858H366.796L304.744 320.435L202.884 321.386H202.797L176.898 321.63L176.62 321.636L61.5415 322.697V313.954L88.6001 297.634L142.891 297.18L144.051 297.174L144.434 297.168L145.594 297.15L171.661 296.935L172.827 296.929L173.198 296.923L174.358 296.917L182.716 296.847L182.937 296.842L203.557 296.667H203.725L364.626 295.303L368.565 295.274H368.959L371.964 295.244L393.802 295.064L394.962 295.046L396.035 295.035H396.592L403.384 294.982L404.73 294.965L406.534 294.953L412.189 294.901L421.162 294.825L422.322 294.813L424.341 294.802H424.718L468.052 294.428L500.627 311.04Z" fill="#65617D"/>
<path opacity="0.2" d="M500.627 311.04V318.617L412.508 319.433L411.568 319.45L378.077 319.759L377.277 319.771L367.097 319.858H366.796L304.744 320.435L202.884 321.386H202.797L176.898 321.63L176.62 321.636L61.5415 322.697V313.954L88.6001 297.634L142.891 297.18L144.051 297.174L144.434 297.168L145.594 297.15L171.661 296.935L172.827 296.929L173.198 296.923L174.358 296.917L182.716 296.847L182.937 296.842L203.557 296.667H203.725L364.626 295.303L368.565 295.274H368.959L371.964 295.244L393.802 295.064L394.962 295.046L396.035 295.035H396.592L403.384 294.982L404.73 294.965L406.534 294.953L412.189 294.901L421.162 294.825L422.322 294.813L424.341 294.802H424.718L468.052 294.428L500.627 311.04Z" fill="black"/>
<path d="M171.748 281.903V296.177C171.748 296.853 171.558 297.516 171.198 298.087C170.839 298.659 170.325 299.116 169.718 299.406C169.265 299.627 168.77 299.746 168.268 299.756L148.024 300.187C147.484 300.2 146.948 300.086 146.458 299.855C145.84 299.57 145.316 299.113 144.949 298.537C144.582 297.962 144.387 297.292 144.388 296.608V281.903H171.748Z" fill="#3F3D56"/>
<path opacity="0.1" d="M171.748 281.903V296.177C171.748 296.853 171.558 297.516 171.198 298.087C170.839 298.659 170.325 299.116 169.718 299.406C169.265 299.627 168.77 299.746 168.268 299.756L148.024 300.187C147.484 300.2 146.948 300.086 146.458 299.855C145.84 299.57 145.316 299.113 144.949 298.537C144.582 297.962 144.387 297.292 144.388 296.608V281.903H171.748Z" fill="black"/>
<path d="M172.908 281.903V296.177C172.908 296.853 172.718 297.516 172.358 298.087C171.999 298.659 171.485 299.116 170.878 299.406C170.425 299.627 169.93 299.746 169.428 299.756L149.185 300.187C148.644 300.2 148.108 300.086 147.618 299.855C147 299.57 146.476 299.113 146.109 298.537C145.742 297.962 145.547 297.292 145.548 296.608V281.903H172.908Z" fill="#3F3D56"/>
<path d="M422.322 281.903H394.962V300.263H422.322V281.903Z" fill="#3F3D56"/>
<path opacity="0.1" d="M422.322 281.903H394.962V300.263H422.322V281.903Z" fill="black"/>
<path d="M421.162 281.903H393.802V300.263H421.162V281.903Z" fill="#3F3D56"/>
<path opacity="0.1" d="M133.756 154.934V158.274L122.735 157.988V154.934H133.756Z" fill="black"/>
<path d="M206.295 60.8499L193.052 156.438C192.968 157.049 192.664 157.607 192.196 158.005C191.728 158.404 191.131 158.616 190.518 158.6L84.4876 155.838L82.4749 155.785C82.1245 155.777 81.7797 155.694 81.4631 155.543C81.1465 155.392 80.8652 155.175 80.6376 154.907C80.4099 154.64 80.2409 154.327 80.1418 153.989C80.0426 153.651 80.0154 153.296 80.062 152.947L94.9282 52.8823C95.024 52.2625 95.3477 51.7013 95.8352 51.3096C96.3228 50.9179 96.9388 50.7241 97.5615 50.7666L203.974 58.0056C204.318 58.0256 204.653 58.1169 204.96 58.2737C205.266 58.4305 205.537 58.6495 205.755 58.9168C205.973 59.184 206.133 59.4938 206.226 59.8265C206.319 60.1593 206.342 60.5077 206.295 60.8499Z" fill="#65617D"/>
<path d="M102.045 57.7958L90.8332 145.999L188.279 149.106L200.262 64.009L102.045 57.7958Z" fill="#0068FF"/>
<path d="M338.704 56.4319H226.172C224.465 56.4319 223.081 57.8228 223.081 59.5385V154.351C223.081 156.067 224.465 157.458 226.172 157.458H338.704C340.412 157.458 341.796 156.067 341.796 154.351V59.5385C341.796 57.8228 340.412 56.4319 338.704 56.4319Z" fill="#65617D"/>
<path d="M336.57 63.2338H228.684V147.357H336.57V63.2338Z" fill="#0068FF"/>
<path opacity="0.1" d="M430.344 153.186V155.395L419.323 155.622V153.186H430.344Z" fill="black"/>
<path d="M480.07 151.321C480.086 151.562 480.053 151.804 479.973 152.033C479.893 152.261 479.768 152.471 479.606 152.649C479.443 152.828 479.246 152.971 479.027 153.072C478.808 153.172 478.571 153.227 478.33 153.232L369.748 155.488C369.297 155.497 368.859 155.335 368.522 155.033C368.185 154.732 367.975 154.313 367.932 153.862L358.6 56.362C358.577 56.1201 358.603 55.876 358.676 55.6445C358.75 55.4131 358.869 55.199 359.028 55.0154C359.186 54.8317 359.38 54.6823 359.598 54.5761C359.815 54.4699 360.052 54.4093 360.293 54.3977L468.052 49.0122L469.212 48.9539C469.673 48.9295 470.126 49.086 470.474 49.3905C470.823 49.695 471.04 50.1236 471.08 50.5859L480.07 151.321Z" fill="#65617D"/>
<path d="M364.8 60.1272L463.214 55.2662L471.526 143.86L373.889 146.191L364.8 60.1272Z" fill="#0068FF"/>
<path opacity="0.1" d="M480.07 151.32C480.086 151.562 480.053 151.804 479.973 152.032C479.893 152.261 479.768 152.471 479.606 152.649C479.443 152.828 479.246 152.971 479.027 153.072C478.808 153.172 478.571 153.226 478.33 153.232L468.052 49.0122L469.212 48.9539C469.673 48.9295 470.126 49.086 470.474 49.3905C470.823 49.695 471.04 50.1236 471.08 50.5859L480.07 151.32Z" fill="black"/>
<path opacity="0.1" d="M97.579 50.7607L84.4876 155.838L82.4749 155.785C82.1245 155.777 81.7797 155.694 81.4631 155.543C81.1465 155.392 80.8652 155.175 80.6376 154.907C80.4099 154.64 80.2409 154.326 80.1418 153.989C80.0426 153.651 80.0154 153.296 80.062 152.947L94.9282 52.8823C95.0229 52.2582 95.3485 51.693 95.84 51.2997C96.3314 50.9063 96.9524 50.7138 97.579 50.7607Z" fill="black"/>
<path opacity="0.1" d="M133.756 178.592H122.735V188.547H133.756V178.592Z" fill="black"/>
<path opacity="0.1" d="M172.908 281.897V284.794L145.548 285.528V281.897H172.908Z" fill="black"/>
<path d="M221.196 182.06V280.096C221.189 280.695 220.953 281.267 220.537 281.696C220.121 282.124 219.558 282.376 218.963 282.398L107.799 285.371H107.77C107.165 285.363 106.586 285.118 106.158 284.688C105.73 284.258 105.487 283.677 105.479 283.069V182.06C105.487 181.452 105.73 180.871 106.158 180.441C106.586 180.01 107.165 179.765 107.77 179.758H218.904C219.51 179.765 220.088 180.01 220.516 180.441C220.944 180.871 221.188 181.452 221.196 182.06Z" fill="#65617D"/>
<path opacity="0.1" d="M107.799 179.758V285.371H107.77C107.165 285.363 106.586 285.118 106.158 284.688C105.73 284.258 105.487 283.677 105.479 283.069V182.06C105.487 181.452 105.73 180.871 106.158 180.441C106.586 180.01 107.165 179.765 107.77 179.758H107.799Z" fill="black"/>
<path d="M112.874 186.018H215.83V272.426L112.874 274.757V186.018Z" fill="#D4DFEC"/>
<path opacity="0.1" d="M430.344 178.592H419.323V188.745H430.344V178.592Z" fill="black"/>
<path opacity="0.1" d="M421.162 281.897V285.633L393.802 284.899V281.897H421.162Z" fill="black"/>
<path d="M457.269 182.06V283.069C457.261 283.682 457.014 284.267 456.579 284.698C456.145 285.129 455.559 285.371 454.949 285.371L343.762 282.398C343.167 282.376 342.603 282.124 342.188 281.696C341.772 281.267 341.536 280.695 341.529 280.096V182.06C341.537 181.452 341.781 180.871 342.209 180.441C342.637 180.01 343.215 179.765 343.82 179.758H454.955C455.564 179.759 456.148 180.002 456.581 180.432C457.014 180.863 457.261 181.448 457.269 182.06Z" fill="#65617D"/>
<path opacity="0.1" d="M457.269 182.06V283.069C457.261 283.682 457.014 284.267 456.579 284.698C456.145 285.129 455.559 285.371 454.949 285.371V179.758C455.559 179.758 456.145 179.999 456.579 180.43C457.014 180.861 457.261 181.447 457.269 182.06Z" fill="black"/>
<path d="M449.874 186.018H346.918V272.426L449.874 274.757V186.018Z" fill="#D4DFEC"/>
<path d="M338.652 182.06V280.096C338.645 280.695 338.41 281.267 337.994 281.696C337.578 282.124 337.014 282.376 336.419 282.398L225.256 285.371C224.646 285.371 224.06 285.129 223.625 284.698C223.191 284.267 222.943 283.682 222.936 283.069V182.06C222.943 181.452 223.187 180.871 223.615 180.441C224.043 180.01 224.622 179.765 225.227 179.758H336.361C336.966 179.765 337.545 180.01 337.973 180.441C338.401 180.871 338.645 181.452 338.652 182.06Z" fill="#65617D"/>
<path d="M230.331 186.018H333.287V272.426L230.331 274.757V186.018Z" fill="#D4DFEC"/>
<path opacity="0.1" d="M500.627 311.04V318.617L412.508 319.433L411.568 319.45L378.077 319.759L377.277 319.771L367.097 319.858H366.796L304.744 320.435L202.884 321.386H202.797L176.898 321.63L176.62 321.636L61.5415 322.697V313.954L179.004 313.179H179.282L203.058 313.016H203.168L367.364 311.926H367.532L367.631 311.92H367.903L370.682 311.902H371.529L414.735 311.611L417.287 311.599L417.856 311.594L500.627 311.04Z" fill="black"/>
<path d="M282.627 188.547C299.07 188.547 312.4 175.153 312.4 158.629C312.4 142.106 299.07 128.712 282.627 128.712C266.184 128.712 252.854 142.106 252.854 158.629C252.854 175.153 266.184 188.547 282.627 188.547Z" fill="#FBBEBE"/>
<path d="M312.406 219.829C312.406 219.829 254.693 226.823 260.203 219.829C262.198 217.299 262.749 209.804 262.639 201.265C262.604 198.671 262.511 195.985 262.378 193.309C261.74 180.486 260.203 167.955 260.203 167.955C260.203 167.955 310.666 144.058 304.865 163.001C302.545 170.654 303.305 181.402 305.068 191.491C305.585 194.434 306.182 197.319 306.808 200.059C308.337 206.74 310.206 213.339 312.406 219.829Z" fill="#FBBEBE"/>
<path opacity="0.1" d="M312.406 219.829C312.406 219.829 254.693 226.823 260.203 219.829C262.198 217.3 262.749 209.804 262.639 201.265C271.438 197.488 282.633 200.303 282.633 200.303C294.419 197.943 301.977 198.403 306.808 200.059C308.337 206.741 310.206 213.339 312.406 219.829Z" fill="black"/>
<path d="M202.861 322.044V321.555L304.726 320.441L366.79 319.858H366.964L366.9 320.721L366.987 319.858H367.097V319.759L367.892 311.92L368.193 308.953L368.286 308.027L368.367 307.251L371.952 295.239L375.537 283.244L378.553 273.143L383.158 257.709C383.158 257.709 380.548 251.589 379.098 249.84C377.648 248.092 376.198 236.143 376.198 236.143C376.198 236.143 363.82 224.294 358.408 222.93C356.14 222.347 351.662 221.572 346.906 220.598C345.125 220.237 343.298 219.852 341.541 219.433C340.549 219.205 339.575 218.966 338.641 218.727C336.823 218.271 335.032 217.715 333.275 217.061C332.354 216.724 331.478 216.276 330.665 215.726C326.402 212.584 315.718 212.229 315.306 212.229C315.305 212.215 315.305 212.201 315.306 212.188V212.135C315.321 211.891 315.321 211.646 315.306 211.401C315.306 211.168 315.306 210.894 315.254 210.585C315.254 210.492 315.254 210.393 315.213 210.294C315.184 210.084 315.149 209.862 315.097 209.629C315.08 209.525 315.056 209.422 315.028 209.32C314.859 208.618 314.616 207.936 314.303 207.286C314.262 207.193 314.21 207.094 314.163 207C313.879 206.462 313.549 205.949 313.177 205.468C313.102 205.368 313.021 205.264 312.934 205.164C312.458 204.602 311.93 204.086 311.356 203.626C311.199 203.503 311.037 203.375 310.869 203.259C310.775 203.182 310.676 203.112 310.573 203.049L310.057 202.711L309.575 202.431C309.152 202.198 308.705 201.97 308.218 201.755C308.067 201.685 307.905 201.621 307.742 201.557C307.58 201.492 307.325 201.393 307.11 201.312H307.075L306.64 201.137C306.31 201.026 305.973 200.927 305.619 200.828L305.08 200.688L304.5 200.554L303.92 200.432C303.34 200.315 302.719 200.21 302.07 200.129L301.408 200.047L300.73 199.977L300.028 199.919L299.03 199.861L297.87 199.82C292.754 199.819 287.652 200.364 282.65 201.446C279.175 200.669 275.616 200.34 272.059 200.467H271.554L270.974 200.502H270.603L269.855 200.572C269.605 200.572 269.35 200.624 269.101 200.659C268.851 200.694 268.59 200.723 268.341 200.764L267.958 200.828C267.581 200.892 267.198 200.962 266.798 201.044C266.67 201.067 266.543 201.096 266.415 201.131C265.91 201.242 265.406 201.376 264.907 201.527C264.657 201.597 264.408 201.679 264.159 201.766C264.031 201.801 263.909 201.848 263.787 201.895L263.416 202.029L263.051 202.174L262.616 202.349C262.395 202.443 262.181 202.542 261.966 202.647C261.844 202.699 261.722 202.757 261.606 202.821C261.49 202.886 261.369 202.938 261.258 203.002C259.947 203.683 258.735 204.542 257.656 205.555L257.361 205.841L257.071 206.138C256.972 206.237 256.879 206.342 256.786 206.447C256.408 206.862 256.056 207.3 255.731 207.758C255.638 207.881 255.551 208.003 255.464 208.131C255.096 208.677 254.763 209.245 254.466 209.833C254.391 209.973 254.321 210.119 254.252 210.259C253.778 211.243 253.39 212.267 253.092 213.319C252.983 213.707 252.885 214.096 252.796 214.484C252.796 214.484 240.517 219.928 230.331 223.868C227.622 224.917 225.07 225.867 222.936 226.584C222.315 226.794 221.735 226.987 221.196 227.167C220.025 227.592 218.808 227.874 217.57 228.007C216.987 228.016 216.405 228.071 215.83 228.17C211.149 228.933 203.128 232.25 202.252 235.578C202.181 235.844 202.161 236.121 202.194 236.394C202.194 236.394 202.194 236.435 202.194 236.458C202.774 240.538 198.714 239.955 198.714 239.955C198.714 239.955 197.263 250.738 195.233 253.652C193.766 255.75 192.762 260.431 192.635 263.963C192.562 265.063 192.648 266.169 192.89 267.244C192.89 267.273 192.89 267.303 192.89 267.326C193.122 268.107 192.565 270.24 191.62 272.974C190.593 275.975 189.097 279.706 187.658 283.226C185.489 288.542 183.447 293.368 183.319 294.429C183.267 294.901 183.116 295.746 182.908 296.836C182.061 301.277 180.181 309.734 179.253 313.156C178.563 315.709 177.56 319.206 176.869 321.607C176.869 321.677 176.829 321.747 176.811 321.811L202.814 321.555V322.044H202.896H202.861Z" fill="#0068FF"/>
<path opacity="0.1" d="M212.35 253.343C212.35 253.343 245.412 270.537 257.303 268.497L212.35 253.343Z" fill="black"/>
<path opacity="0.1" d="M279.634 246.349C279.634 246.349 311.826 256.84 322.556 258.297C333.287 259.755 279.634 246.349 279.634 246.349Z" fill="black"/>
<path opacity="0.1" d="M315.341 212.59C298.52 215.702 266.85 215.032 253.161 214.56C258.178 196.492 282.644 202.635 282.644 202.635C312.928 196.562 315.248 209.163 315.341 212.59Z" fill="black"/>
<path d="M315.341 211.424C298.52 214.537 266.85 213.866 253.161 213.394C258.178 195.326 282.644 201.469 282.644 201.469C312.928 195.396 315.248 207.997 315.341 211.424Z" fill="#0068FF"/>
<path d="M404.631 291.083C404.631 291.083 424.445 288.023 424.834 296.766C425.222 305.509 414.729 311.617 414.729 311.617L404.631 291.083Z" fill="#FBBEBE"/>
<path opacity="0.1" d="M305.068 191.491C304.216 191.873 303.345 192.212 302.458 192.505C296.205 194.673 289.9 196.859 283.317 197.651C276.734 198.444 269.826 197.745 264.083 194.446C263.48 194.104 262.899 193.724 262.343 193.309C261.705 180.486 260.168 167.955 260.168 167.955C260.168 167.955 310.631 144.058 304.831 163.001C302.522 170.654 303.305 181.402 305.068 191.491Z" fill="black"/>
<path d="M274.46 111.867C273.632 112.087 272.765 112.109 271.927 111.932C271.089 111.755 270.304 111.383 269.634 110.847L270.841 112.532C270.13 112.614 269.409 112.539 268.73 112.313C268.051 112.086 267.429 111.713 266.908 111.22C266.799 112.728 266.861 114.244 267.094 115.737C265.097 115.834 263.132 115.214 261.549 113.989C261.518 114.515 261.648 115.037 261.922 115.486C262.195 115.936 262.6 116.29 263.08 116.501C261.074 116.26 259.05 116.761 257.385 117.909C255.721 119.058 254.528 120.776 254.031 122.743L257.059 123.023C254.68 123.534 252.544 124.843 251.004 126.736C250.075 127.901 249.368 129.394 249.774 130.816C250.18 132.238 252.14 133.147 253.208 132.133C251.689 133.954 250.586 136.086 249.975 138.381C249.364 140.676 249.259 143.077 249.669 145.416C249.945 146.413 250.035 147.452 249.936 148.482C249.745 149.444 249.142 150.277 248.84 151.216C248.26 152.917 248.811 154.765 249.327 156.461L252.048 165.449C253.034 168.695 254.014 171.948 255.302 175.089C256.213 177.075 256.989 179.122 257.622 181.215C258.353 184.036 258.382 187.125 259.942 189.591C261.011 191.142 262.441 192.408 264.106 193.28C269.843 196.579 276.774 197.278 283.34 196.486C289.906 195.693 296.206 193.507 302.452 191.339C303.84 190.919 305.172 190.332 306.42 189.591C310.741 186.746 311.704 180.929 312.51 175.806C313.409 170.094 314.61 164.394 316.739 159.02C318.003 155.82 319.639 152.574 319.36 149.146C319.007 144.594 315.422 140.905 314.535 136.429C314.237 134.932 314.251 133.39 314.575 131.9C314.85 131.012 315.004 130.09 315.033 129.16C314.935 127.284 313.403 125.838 311.965 124.632C308.844 122.013 305.623 119.537 302.302 117.206C302.133 116.04 303.711 115.539 304.425 114.618C305.434 113.318 304.39 111.255 302.858 110.649C301.327 110.043 299.61 110.439 298.015 110.841C298.119 110.021 297.957 109.189 297.552 108.468C297.148 107.748 296.523 107.178 295.77 106.844C295.017 106.509 294.177 106.428 293.375 106.611C292.572 106.795 291.85 107.234 291.316 107.863C290.892 106.887 290.215 106.043 289.356 105.42C288.497 104.796 287.487 104.416 286.432 104.319C282.586 104.016 282.511 106.971 280.052 108.597C277.592 110.223 275.562 108.079 273.671 106.516C273.324 107.399 273.214 108.359 273.352 109.298C273.491 110.237 273.873 111.123 274.46 111.867Z" fill="#3F3D56"/>
<path d="M419.323 308.569C419.323 308.569 418.807 309.804 417.856 311.594C416.417 314.346 414.665 316.922 412.635 319.27L412.479 319.439H411.539L378.048 319.748H377.248L377.149 319.631L370.653 311.885L368.205 308.965L368.106 308.842L367.898 308.598L367.782 308.458L367.631 308.277L362.869 302.6L364.609 295.314L367.573 283.04L367.648 282.742L368.228 280.411L368.64 278.662L370.02 272.962L374.754 253.349L383.164 257.72L392.033 273.457L396.795 281.909H399.405C399.898 281.909 401.029 282.865 402.166 283.966C402.572 284.357 402.978 284.771 403.326 285.132C404.358 286.204 405.176 287.125 405.176 287.125C405.176 287.125 409.405 287.219 410.542 290.564C410.6 290.726 410.649 290.892 410.687 291.06C411.064 292.375 411.555 293.654 412.154 294.883C412.902 296.521 413.842 298.38 414.793 300.24C416.562 303.649 418.36 306.896 419.022 308.073L419.103 308.219L419.323 308.569Z" fill="#0068FF"/>
<path opacity="0.1" d="M369.498 282.253L369.44 283.086V283.145L369.342 284.485L368.57 295.274L367.637 308.271L367.37 311.932L366.79 319.765V319.864L304.726 320.447L202.878 321.554V322.044H202.797V321.554V321.391L203.058 313.022L203.557 296.667L203.986 282.801L204.027 281.419C204.052 280.586 204.246 279.766 204.597 279.01C204.949 278.254 205.45 277.578 206.07 277.023C206.689 276.469 207.415 276.047 208.203 275.783C208.991 275.52 209.824 275.421 210.651 275.492C213.388 275.725 216.944 276.01 221.196 276.313L222.936 276.442C247.489 278.155 292.865 280.37 338.652 277.607C339.615 277.555 340.584 277.497 341.552 277.427C348.652 276.978 355.746 276.401 362.77 275.678C363.658 275.585 364.556 275.688 365.4 275.981C366.244 276.273 367.013 276.749 367.655 277.373C368.296 277.997 368.794 278.754 369.112 279.593C369.431 280.431 369.563 281.329 369.498 282.224V282.253Z" fill="black"/>
<path d="M202.861 322.044V321.555L304.726 320.441L366.79 319.858H366.964V319.759L367.544 311.926L367.793 308.429L368.744 295.25L369.493 284.817V284.561C369.527 284.08 369.506 283.597 369.429 283.121C369.432 283.102 369.432 283.082 369.429 283.063C369.269 282.079 368.871 281.15 368.269 280.358C367.63 279.535 366.793 278.89 365.837 278.482C364.881 278.074 363.838 277.917 362.805 278.027C355.781 278.75 348.687 279.327 341.587 279.776C340.619 279.846 339.65 279.904 338.687 279.956C292.899 282.69 247.523 280.475 222.971 278.791L221.23 278.662C216.979 278.359 213.423 278.079 210.685 277.84C209.179 277.713 207.68 278.15 206.476 279.068C205.272 279.987 204.449 281.32 204.166 282.812C204.107 283.128 204.072 283.447 204.061 283.768L203.667 296.684L203.128 313.045L202.872 321.415V321.578V322.067L202.861 322.044Z" fill="#3F3D56"/>
<path opacity="0.1" d="M369.672 286.339L368.959 295.274L367.898 308.592L367.631 311.926L367.051 319.392L367.016 319.765V319.864L366.929 320.727L366.993 319.864H366.825L304.761 320.447L202.878 321.555V321.391L203.162 313.022L203.742 296.667L204.114 285.796C204.132 285.178 204.304 284.574 204.614 284.04C204.924 283.505 205.362 283.057 205.889 282.736C206.545 282.332 207.313 282.148 208.081 282.212C209.299 282.311 210.796 282.428 212.542 282.556C215.378 282.766 218.875 283.01 222.947 283.267C230.488 283.745 239.948 284.258 250.789 284.677C280.951 285.843 321.669 286.234 360.346 282.83C362.086 282.678 363.884 282.509 365.641 282.34C366.337 282.27 367.038 282.404 367.66 282.725C367.836 282.813 368.003 282.918 368.159 283.04C368.664 283.407 369.064 283.902 369.319 284.473C369.378 284.587 369.426 284.706 369.464 284.829C369.638 285.312 369.709 285.826 369.672 286.339Z" fill="black"/>
<path opacity="0.1" d="M172.908 294.318V296.177C172.908 296.853 172.718 297.515 172.358 298.087C171.999 298.659 171.485 299.116 170.878 299.406L147.618 299.855C147 299.57 146.476 299.113 146.109 298.537C145.742 297.961 145.547 297.292 145.548 296.608V294.86L172.908 294.318Z" fill="black"/>
<path d="M173.198 300.502L142.891 301.085V296.031L173.198 295.448V300.502Z" fill="#3F3D56"/>
<path opacity="0.1" d="M173.198 300.502L142.891 301.085V296.031L173.198 295.448V300.502Z" fill="black"/>
<path d="M174.358 300.502L144.051 301.085V296.031L174.358 295.448V300.502Z" fill="#3F3D56"/>
<g opacity="0.1">
<path opacity="0.1" d="M274.698 109.955C274.131 109.215 273.755 108.347 273.602 107.426C273.462 108.326 273.545 109.247 273.845 110.107C274.133 110.08 274.418 110.03 274.698 109.955Z" fill="black"/>
<path opacity="0.1" d="M267.331 113.825C267.222 113.111 267.15 112.391 267.117 111.669C267.117 112.386 267.117 113.109 267.117 113.831L267.331 113.825Z" fill="black"/>
<path opacity="0.1" d="M314.604 133.275C314.636 132.756 314.706 132.24 314.813 131.731C315.087 130.844 315.243 129.925 315.277 128.997C315.264 128.789 315.233 128.582 315.184 128.379C315.086 128.916 314.929 129.452 314.813 129.982C314.581 131.063 314.511 132.173 314.604 133.275Z" fill="black"/>
<path opacity="0.1" d="M302.539 115.265L303.172 115.726C303.705 115.338 304.203 114.905 304.662 114.432C304.881 114.128 305.016 113.773 305.055 113.4C305.093 113.028 305.034 112.652 304.883 112.31C304.825 112.443 304.751 112.568 304.662 112.683C303.949 113.604 302.371 114.111 302.539 115.265Z" fill="black"/>
<path opacity="0.1" d="M254.878 120.872C254.667 121.297 254.498 121.742 254.374 122.201C255.281 121.692 256.258 121.321 257.274 121.099L254.878 120.872Z" fill="black"/>
<path opacity="0.1" d="M262.877 114.531C262.496 114.32 262.131 114.08 261.786 113.814C261.772 114.044 261.789 114.276 261.839 114.502C262.185 114.485 262.532 114.495 262.877 114.531Z" fill="black"/>
<path opacity="0.1" d="M319.587 148.872C319.349 151.699 318.038 154.421 316.977 157.102C314.848 162.476 313.647 168.177 312.748 173.894C311.942 179.018 311.008 184.835 306.658 187.673C305.415 188.419 304.084 189.007 302.696 189.422C296.443 191.596 290.138 193.776 283.555 194.568C276.972 195.361 270.063 194.667 264.321 191.368C262.656 190.495 261.227 189.229 260.156 187.679C258.608 185.213 258.579 182.124 257.836 179.303C257.203 177.209 256.428 175.16 255.516 173.172C254.234 170.036 253.248 166.76 252.268 163.537C251.359 160.541 250.453 157.543 249.548 154.544C249.25 153.641 249.028 152.715 248.886 151.775C248.66 153.267 249.101 154.829 249.548 156.292C250.453 159.296 251.359 162.294 252.268 165.286C253.248 168.532 254.234 171.784 255.516 174.92C256.428 176.908 257.203 178.957 257.836 181.052C258.567 183.873 258.596 186.962 260.156 189.427C261.227 190.978 262.656 192.244 264.321 193.117C270.063 196.416 276.989 197.109 283.555 196.317C290.121 195.524 296.42 193.344 302.696 191.17C304.084 190.755 305.415 190.168 306.658 189.422C310.979 186.583 311.942 180.766 312.748 175.643C313.647 169.925 314.848 164.225 316.977 158.851C318.241 155.657 319.877 152.41 319.598 148.977C319.598 148.942 319.587 148.907 319.587 148.872Z" fill="black"/>
<path opacity="0.1" d="M250.162 146.617C250.162 146.617 250.162 146.576 250.162 146.553C250.267 145.525 250.177 144.487 249.896 143.493C249.78 142.853 249.704 142.207 249.669 141.558C249.603 142.79 249.679 144.026 249.896 145.241C249.988 145.696 250.093 146.156 250.162 146.617Z" fill="black"/>
<path opacity="0.1" d="M251.932 132.36C252.378 131.607 252.884 130.892 253.445 130.221C252.384 131.241 250.423 130.332 250.012 128.916C249.86 129.488 249.86 130.091 250.012 130.664C250.154 131.092 250.407 131.474 250.744 131.772C251.082 132.07 251.491 132.273 251.932 132.36Z" fill="black"/>
</g>
<path opacity="0.1" d="M396.801 281.903C396.801 281.903 398.639 288.606 396.801 294.434C394.962 300.263 396.801 281.903 396.801 281.903Z" fill="black"/>
<path opacity="0.1" d="M404.631 288.74C404.631 288.74 405.402 297.249 403.662 298.759C401.922 300.269 404.631 288.74 404.631 288.74Z" fill="black"/>
<path d="M115.421 199.837L174.358 199.254" stroke="#0068FF" stroke-width="2" stroke-miterlimit="10"/>
<path d="M115.421 207.105L174.358 206.528" stroke="#0068FF" stroke-width="2" stroke-miterlimit="10"/>
<path d="M115.421 214.379L174.358 213.797" stroke="#0068FF" stroke-width="2" stroke-miterlimit="10"/>
</g>
<defs>
<clipPath id="clip0">
<rect width="604" height="323" fill="white"/>
</clipPath>
</defs>
</svg>
